<!DOCTYPE svg PUBLIC "-//W3C//DTD SVG 1.1//EN" "http://www.w3.org/Graphics/SVG/1.1/DTD/svg11.dtd">
<svg width="256px" height="256px" viewBox="-4.8 -4.8 25.60 25.60" xmlns="http://www.w3.org/2000/svg" fill="none" stroke="#ffffff" stroke-width="0.00016" transform="matrix(1, 0, 0, 1, 0, 0)rotate(0)"><g id="SVGRepo_bgCarrier" stroke-width="0" transform="translate(0,0), scale(1)"><path transform="translate(-4.8, -4.8), scale(1.6)" fill="#00aaff" d="M9.166.33a2.25 2.25 0 00-2.332 0l-5.25 3.182A2.25 2.25 0 00.5 5.436v5.128a2.25 2.25 0 001.084 1.924l5.25 3.182a2.25 2.25 0 002.332 0l5.25-3.182a2.25 2.25 0 001.084-1.924V5.436a2.25 2.25 0 00-1.084-1.924L9.166.33z" strokewidth="0"/></g><g id="SVGRepo_tracerCarrier" stroke-linecap="round" stroke-linejoin="round" stroke="#CCCCCC" stroke-width="0.096"/><g id="SVGRepo_iconCarrier"><path fill="#000000" fill-rule="evenodd" d="M.5 2.75a2.25 2.25 0 114.28.97l1.345 1.344.284-.284a2.25 2.25 0 013.182 0l.284.284 1.344-1.344a2.25 2.25 0 111.06 1.06l-1.343 1.345.284.284a2.25 2.25 0 010 3.182l-.284.284 1.344 1.344a2.25 2.25 0 11-1.06 1.06l-1.345-1.343-.284.284a2.25 2.25 0 01-3.182 0l-.284-.284-1.344 1.344a2.25 2.25 0 11-1.06-1.06l1.343-1.345-.284-.284a2.25 2.25 0 010-3.182l.284-.284L3.72 4.781A2.25 2.25 0 01.5 2.75zM2.75 2a.75.75 0 100 1.5.75.75 0 000-1.5zm0 10.5a.75.75 0 100 1.5.75.75 0 000-1.5zm9.75.75a.75.75 0 111.5 0 .75.75 0 01-1.5 0zM13.25 2a.75.75 0 100 1.5.75.75 0 000-1.5zM7.47 5.841a.75.75 0 011.06 0L10.16 7.47a.75.75 0 010 1.06L8.53 10.16a.75.75 0 01-1.06 0L5.84 8.53a.75.75 0 010-1.06L7.47 5.84z" clip-rule="evenodd"/></g></svg>